HIERARCHY
ROOT root
{
	OFFSET 0.000000 0.000000 0.000000
	CHANNELS 6 Xposition Yposition Zposition Zrotation Yrotation Xrotation
	JOINT lhip
	{
		OFFSET 0.058581 -0.082280 -0.017664
		CHANNELS 3 Zrotation Yrotation Xrotation
		JOINT lknee
		{
			OFFSET 0.043451 -0.386469 0.008037
			CHANNELS 3 Zrotation Yrotation Xrotation
			JOINT lankle
			{
				OFFSET -0.014790 -0.426874 -0.037428
				CHANNELS 3 Zrotation Yrotation Xrotation
				JOINT ltoe
				{
					OFFSET 0.041054 -0.060286 0.122042
					CHANNELS 3 Zrotation Yrotation Xrotation
					End Site
					{
						OFFSET 0.000000 0.000000 0.000000
					}
				}
			}
		}
	}
	JOINT rhip
	{
		OFFSET -0.060310 -0.090513 -0.013543
		CHANNELS 3 Zrotation Yrotation Xrotation
		JOINT rknee
		{
			OFFSET -0.043257 -0.383688 -0.004843
			CHANNELS 3 Zrotation Yrotation Xrotation
			JOINT rankle
			{
				OFFSET 0.019056 -0.420046 -0.034562
				CHANNELS 3 Zrotation Yrotation Xrotation
				JOINT rtoe
				{
					OFFSET -0.034840 -0.062106 0.130323
					CHANNELS 3 Zrotation Yrotation Xrotation
					End Site
					{
						OFFSET 0.000000 0.000000 0.000000
					}
				}
			}
		}
	}
	JOINT lowerback
	{
		OFFSET 0.004439 0.124404 -0.038385
		CHANNELS 3 Zrotation Yrotation Xrotation
		JOINT upperback
		{
			OFFSET 0.004488 0.137956 0.026820
			CHANNELS 3 Zrotation Yrotation Xrotation
			JOINT chest
			{
				OFFSET -0.002265 0.056032 0.002855
				CHANNELS 3 Zrotation Yrotation Xrotation
				JOINT lowerneck
				{
					OFFSET -0.013390 0.211636 -0.033468
					CHANNELS 3 Zrotation Yrotation Xrotation
					JOINT upperneck
					{
						OFFSET 0.010113 0.088937 0.050410
						CHANNELS 3 Zrotation Yrotation Xrotation
						End Site
						{
							OFFSET 0.000000 0.000000 0.000000
						}
					}
				}
				JOINT lclavicle
				{
					OFFSET 0.071702 0.114000 -0.018898
					CHANNELS 3 Zrotation Yrotation Xrotation
					JOINT lshoulder
					{
						OFFSET 0.122921 0.045205 -0.019046
						CHANNELS 3 Zrotation Yrotation Xrotation
						JOINT lelbow
						{
							OFFSET 0.255332 -0.015649 -0.022946
							CHANNELS 3 Zrotation Yrotation Xrotation
							JOINT lwrist
							{
								OFFSET 0.265709 0.012698 -0.007375
								CHANNELS 3 Zrotation Yrotation Xrotation
								End Site
								{
									OFFSET 0.000000 0.000000 0.000000
								}
							}
						}
					}
				}
				JOINT rclavicle
				{
					OFFSET -0.082954 0.112472 -0.023707
					CHANNELS 3 Zrotation Yrotation Xrotation
					JOINT rshoulder
					{
						OFFSET -0.113228 0.046853 -0.008472
						CHANNELS 3 Zrotation Yrotation Xrotation
						JOINT relbow
						{
							OFFSET -0.260127 -0.014369 -0.031269
							CHANNELS 3 Zrotation Yrotation Xrotation
							JOINT rwrist
							{
								OFFSET -0.269108 0.006794 -0.006027
								CHANNELS 3 Zrotation Yrotation Xrotation
								End Site
								{
									OFFSET 0.000000 0.000000 0.000000
								}
							}
						}
					}
				}
			}
		}
	}
}
MOTION
Frames: 14
Frame Time: 0.033333
0.989791 0.415000 1.002526 -84.761559 -2.929503 88.368626 6.981476 -11.061888 -17.168863 -6.811723 -8.985399 69.372359 4.183749 14.353045 -29.859261 0.000000 -0.000000 0.000000 -3.099286 -1.524559 -8.147630 2.530126 0.349516 15.324828 3.263181 -7.327654 -8.836055 0.000000 -0.000000 0.000000 -5.029024 2.190928 15.009688 2.044109 -6.705400 4.204023 -0.518000 -3.755232 7.602066 0.953616 -1.796105 13.238383 3.550859 -3.217345 13.185713 -22.591279 5.430879 5.145638 -57.707125 -11.350386 4.316919 12.742418 -33.411009 0.703690 -3.147514 -0.414075 -13.879691 21.997486 -6.769425 0.636606 65.425531 -2.117936 9.790109 -17.269880 29.838904 -4.444510 11.346824 -1.888154 -13.198927 
0.982621 0.421148 1.003318 -85.752135 -3.530812 87.711191 6.093548 -10.680260 -18.546286 -5.650064 -6.783341 73.417686 4.649980 15.091869 -30.088213 0.000000 -0.000000 0.000000 -3.158336 -1.638066 -6.749688 2.286870 0.774445 14.785448 3.236496 -6.488799 -8.798240 0.000000 -0.000000 0.000000 -5.156962 3.302028 15.402051 2.109349 -6.441645 4.667339 -0.384841 -3.558557 7.237640 0.948696 -1.775084 13.585602 3.679681 -3.174988 12.993259 -22.488610 4.936140 5.212616 -58.071018 -11.195901 4.445306 12.813040 -34.287542 1.040993 -3.791684 -0.469464 -13.702513 22.140027 -6.318831 0.905646 65.220214 -1.830446 9.467825 -17.365371 29.867928 -4.680651 11.542952 -2.015226 -12.972880 
0.979377 0.426220 1.003527 -85.896360 -3.707519 87.938630 6.493897 -12.474332 -22.365663 -5.863683 -2.622378 78.175210 4.770634 14.520056 -29.852663 0.000000 -0.000000 0.000000 -3.050827 -1.373709 -6.323271 2.468232 0.817249 13.835912 2.959746 -6.864103 -8.554673 0.000000 -0.000000 0.000000 -4.869391 3.738510 15.180673 2.431124 -6.715393 4.330114 -0.485547 -3.262370 7.555620 0.639875 -2.219143 13.589848 3.754120 -2.958179 13.392356 -22.390606 4.803868 5.093366 -58.535016 -11.363394 5.064234 12.848973 -34.280444 1.579990 -4.099970 -0.441196 -13.049940 22.065537 -6.087983 0.935638 65.073457 -1.114318 9.857491 -18.055979 29.535356 -4.949668 13.398782 -1.389668 -13.719699 
0.972645 0.431488 1.003917 -87.201798 -3.910684 87.457157 5.675705 -10.281223 -24.181582 -5.652692 -0.728323 81.292783 5.008176 12.962605 -29.648510 0.000000 -0.000000 0.000000 -2.787360 -1.838804 -5.197374 2.182467 1.405080 13.530430 2.823160 -5.517196 -8.418136 0.000000 -0.000000 0.000000 -5.008901 4.787942 15.019460 2.610374 -6.457999 4.973782 -0.255769 -2.974879 7.038780 0.491918 -2.551528 14.745479 3.825930 -3.014810 13.061285 -22.621216 4.413312 5.396070 -58.585150 -10.798107 4.684434 12.821568 -34.546834 1.803616 -4.445047 -0.193730 -12.737428 22.282922 -5.593671 1.778397 64.371158 -0.421253 9.094512 -17.721451 30.522260 -4.630468 13.128672 -1.805736 -13.799373 
0.969227 0.436102 1.004299 -87.740547 -3.819113 87.189145 5.272884 -9.453073 -26.434156 -6.204913 1.629591 82.744246 4.948791 11.649603 -29.537568 0.000000 -0.000000 0.000000 -2.322318 -1.848045 -4.295964 2.123493 1.637323 12.848431 2.630563 -5.114418 -8.368029 0.000000 -0.000000 0.000000 -4.742458 5.303293 15.127885 2.824380 -6.525845 5.228025 -0.212429 -2.690487 7.203775 0.544439 -2.466303 14.214480 3.952033 -3.031589 13.238193 -22.697327 4.230308 4.809382 -58.596055 -10.220805 4.766917 12.588148 -34.672950 1.297898 -4.253364 0.438628 -11.900570 22.379850 -5.268298 1.265972 64.053696 -0.085237 9.255285 -18.067353 31.375761 -5.366184 13.769792 -1.947094 -13.797868 
0.966715 0.440377 1.003730 -87.872813 -3.556817 87.406125 5.223616 -9.391996 -28.752533 -7.156010 4.293506 81.779120 4.146703 9.988277 -29.181970 0.000000 -0.000000 0.000000 -1.808139 -2.229928 -4.143789 2.232531 1.648837 12.528502 2.392018 -4.742895 -8.385218 0.000000 -0.000000 0.000000 -4.197694 5.234302 15.298786 2.910233 -6.728367 4.142621 -0.398035 -2.609539 7.710219 0.660847 -2.398022 13.908340 3.845351 -3.006796 13.716024 -22.772231 4.726923 4.667240 -58.559780 -9.718268 4.665592 12.508737 -34.293577 1.414720 -4.449989 -0.648848 -11.659993 22.358654 -5.388413 1.300555 63.931544 0.795824 9.693507 -17.777161 32.065278 -4.880476 13.018915 -1.576220 -14.278991 
0.963470 0.444044 1.003371 -88.268940 -3.374002 87.214792 4.272032 -8.388218 -29.223409 -8.127801 5.386024 77.904000 3.433717 8.445986 -27.439159 0.000000 -0.000000 0.000000 -1.315748 -2.211054 -3.606973 2.226747 1.930677 12.417679 2.106340 -4.531444 -8.649540 0.000000 -0.000000 0.000000 -3.924241 5.231538 15.361901 2.931026 -6.767060 4.041177 -0.394182 -2.460268 7.575804 0.410293 -2.835583 14.317643 3.930671 -3.012258 13.894739 -23.083299 4.703225 4.756199 -58.276398 -8.977513 4.222556 12.597611 -33.657553 0.896624 -4.431637 -0.229111 -11.182062 22.269262 -5.176923 1.493935 64.004404 1.328205 9.362234 -17.979466 32.674791 -5.235581 14.188821 -1.212613 -14.930987 
0.959508 0.447589 1.002951 -88.561908 -3.180834 86.927887 3.327374 -7.743831 -28.145961 -8.578436 5.847710 70.874400 2.085427 6.308694 -23.915354 0.000000 -0.000000 0.000000 -0.951551 -1.900473 -2.529141 2.330865 1.529932 11.530141 1.840915 -4.173597 -8.714338 0.000000 -0.000000 0.000000 -3.752046 5.195001 15.078899 2.940953 -6.831440 4.826714 -0.455371 -2.307357 7.437567 0.875794 -2.458307 13.940588 3.667571 -3.587732 14.115626 -23.202260 4.945911 3.948810 -58.111881 -8.415212 4.455499 12.497901 -32.311739 0.196520 -4.881290 -0.281420 -10.084583 22.536234 -5.041786 0.913864 63.994463 1.578391 9.911461 -18.226999 33.100474 -6.027503 14.292740 -1.075479 -14.945989 
0.955426 0.450701 1.002226 -88.804006 -2.873580 86.804562 2.149062 -7.062144 -25.908525 -9.427810 4.588440 61.769166 0.696892 4.982203 -20.710673 0.000000 -0.000000 0.000000 -0.396056 -1.753245 -2.013754 2.313865 1.374253 11.423233 1.567627 -3.874778 -9.144538 0.000000 -0.000000 0.000000 -3.483827 4.867227 14.835998 2.846957 -6.725082 4.906716 -0.407124 -2.265065 7.306765 0.912001 -2.179063 14.347853 3.529825 -3.615718 14.130147 -23.411405 5.170631 3.684749 -58.059230 -7.615796 4.348345 12.719073 -31.053206 -0.108718 -5.310513 -0.459631 -10.045365 22.478789 -5.138736 0.855908 64.074250 1.914766 9.833765 -17.826470 33.242490 -5.542623 14.659791 -0.753714 -14.913591 
0.949276 0.453427 1.001734 -88.234418 -2.113222 86.015095 0.905549 -6.709258 -21.676172 -9.590434 1.165495 51.950215 -0.365253 4.546779 -16.159316 0.000000 -0.000000 0.000000 0.571353 -2.622106 -0.302914 2.334834 1.561183 10.824638 0.922503 -3.598748 -9.325187 0.000000 -0.000000 0.000000 -2.821659 4.169272 14.585822 2.791339 -6.903686 6.250416 -0.292416 -2.255126 6.703819 0.953906 -1.947581 14.445608 3.481460 -3.627502 14.028994 -23.515583 5.161312 3.490497 -58.179182 -6.972354 4.311076 12.857714 -30.029619 -0.617384 -5.739157 0.041961 -9.784605 22.463754 -4.877310 0.671274 64.070020 1.609496 9.604359 -17.532825 33.769382 -5.393910 14.101994 -0.492767 -14.420154 
0.945283 0.455981 1.001071 -88.427290 -1.468424 85.876351 -0.071585 -6.141387 -17.619308 -9.612859 -3.246076 42.647273 -0.539105 5.093977 -12.636076 0.000000 -0.000000 0.000000 1.419079 -2.305153 0.184632 2.529313 1.262826 10.686976 0.535403 -3.580265 -9.771911 0.000000 -0.000000 0.000000 -2.537754 3.539358 14.262447 2.958481 -6.329779 6.039026 -0.488401 -2.250158 7.036629 2.432517 -0.914349 14.596424 2.613236 -4.985514 13.608018 -23.573676 6.067851 3.452212 -57.880481 -6.846132 6.329767 12.602146 -29.315861 0.575616 -3.864424 -0.052620 -13.345490 23.052749 -5.532368 0.236257 63.943791 1.720610 11.112521 -17.955933 33.193507 -4.249131 12.702858 0.161850 -15.720652 
0.941571 0.457914 1.000025 -88.592140 -0.783463 85.723826 -0.930731 -6.134706 -13.521301 -9.178542 -7.861373 35.120318 0.024363 5.252541 -10.642770 0.000000 -0.000000 0.000000 2.258904 -1.742671 0.688243 2.797163 1.244224 10.655997 0.177153 -4.128502 -10.321106 0.000000 -0.000000 0.000000 -2.291186 3.082549 13.378920 3.119791 -5.932929 6.685191 -0.461307 -2.228103 7.084013 3.389488 -0.457100 14.940624 2.042773 -5.905877 13.322862 -23.871110 6.519490 3.360326 -57.881678 -6.863982 7.445192 13.031616 -28.396486 0.605771 -3.804502 0.247119 -14.655616 23.387948 -5.819910 -0.024155 63.721941 1.631418 11.758978 -18.411671 32.577625 -4.044525 12.406241 0.482151 -16.677685 
0.938338 0.459685 0.999072 -88.912132 -0.197811 85.755569 -1.172034 -5.690164 -9.859765 -7.684803 -9.758911 28.583015 0.049547 6.298157 -8.380914 0.000000 -0.000000 0.000000 3.004363 -1.018600 1.060004 2.916258 0.851077 10.447719 0.019935 -4.332741 -10.200607 0.000000 -0.000000 0.000000 -2.138326 2.635589 12.682061 3.133249 -5.495317 6.841510 -0.342876 -2.278932 6.913847 3.719973 -0.413399 15.279937 1.851920 -5.974955 13.736815 -23.994680 7.186860 3.318402 -57.920569 -6.488712 7.481240 12.862797 -28.282395 0.534986 -3.943150 0.010567 -13.977517 23.525736 -6.066625 0.020906 63.578967 1.423833 11.708543 -18.222122 31.909706 -4.236393 11.807789 0.494640 -16.273253 
0.935040 0.460878 0.997659 -88.989979 0.480865 85.906240 -0.938435 -4.297906 -6.448398 -6.412998 -11.320893 23.437757 1.949652 7.010242 -10.640701 0.000000 -0.000000 0.000000 3.543317 -1.035093 1.640576 3.438891 0.945147 9.705844 0.160544 -4.269835 -10.287028 0.000000 -0.000000 0.000000 -1.845142 2.104006 11.552639 3.129797 -5.212958 7.317322 -0.286497 -2.298290 6.736819 4.017540 -0.536029 15.727390 1.705460 -5.757872 13.860112 -24.131563 7.460441 3.523313 -58.058522 -6.314211 7.257410 12.884676 -28.013563 0.504360 -3.946759 0.659331 -13.525677 23.445399 -6.229494 0.155189 63.719878 1.004363 11.276704 -18.083602 31.298132 -4.465473 11.183569 0.401337 -15.824816 
